<?xml version="1.0" standalone="no"?>
<!DOCTYPE svg PUBLIC "-//W3C//DTD SVG 20010904//EN"
 "http://www.w3.org/TR/2001/REC-SVG-20010904/DTD/svg10.dtd">
<svg version="1.0" xmlns="http://www.w3.org/2000/svg"
 width="220.000000pt" height="229.000000pt" viewBox="0 0 220.000000 229.000000"
 preserveAspectRatio="xMidYMid meet">

<g transform="translate(0.000000,229.000000) scale(0.100000,-0.100000)"
fill="#000000" stroke="none">
<path d="M795 2154 c-22 -8 -48 -13 -57 -10 -10 2 -21 -1 -25 -6 -3 -6 -2 -8
4 -5 6 4 19 -1 29 -9 16 -13 16 -15 2 -10 -9 3 -19 0 -21 -7 -3 -8 -10 -7 -24
6 -19 16 -21 16 -38 -3 -10 -11 -23 -20 -30 -20 -6 0 -29 -18 -50 -40 -32 -33
-36 -40 -20 -40 16 0 17 -2 6 -9 -13 -8 -13 -12 0 -27 13 -15 12 -16 -11 -10
-23 6 -23 5 4 -10 16 -9 41 -14 57 -12 20 3 29 0 32 -14 3 -11 1 -15 -5 -11
-21 12 2 -62 36 -117 24 -38 31 -57 23 -62 -7 -4 -14 -3 -16 3 -1 5 -9 2 -15
-7 -11 -14 -15 -7 -26 47 -8 35 -14 83 -15 106 l0 41 -63 7 c-35 4 -65 5 -68
3 -8 -9 -25 -119 -21 -136 3 -9 5 -3 6 13 1 27 4 24 23 -25 19 -47 22 -72 19
-169 -4 -208 37 -405 109 -523 16 -26 27 -55 25 -65 -2 -10 -20 -53 -40 -96
-22 -44 -35 -86 -32 -97 3 -11 2 -18 -3 -15 -15 9 -34 -100 -33 -190 0 -49 7
-119 16 -155 17 -72 15 -233 -2 -254 -6 -7 -9 -36 -8 -64 l2 -52 638 0 c404 0
636 4 632 10 -3 5 -12 7 -20 3 -10 -3 -15 1 -15 12 0 9 -4 14 -9 11 -14 -9
-23 44 -11 59 6 7 22 12 35 9 17 -3 23 0 21 12 -3 20 -25 37 -88 70 -53 27
-71 31 -42 9 16 -12 17 -14 2 -15 -9 0 -19 9 -23 19 -3 11 -21 25 -38 30 -55
18 -186 41 -236 41 -26 0 -55 6 -65 13 -16 12 -13 16 39 50 31 21 58 44 61 51
6 16 -21 102 -39 126 -6 8 -7 12 -3 8 5 -4 16 -3 23 4 11 9 17 9 24 -3 7 -12
9 -12 10 1 1 8 1 19 0 24 -1 5 7 30 18 55 10 25 22 68 26 94 7 43 10 47 29 41
11 -4 23 -8 26 -11 2 -2 3 -52 3 -111 -2 -117 -28 -240 -64 -301 l-21 -36 36
35 c71 67 111 193 104 323 -3 62 -1 76 10 72 8 -3 32 -8 54 -11 40 -7 40 -7
34 -43 -3 -20 -19 -62 -35 -94 -16 -31 -25 -55 -20 -52 12 8 53 89 68 138 10
29 18 37 36 37 13 0 25 5 27 12 3 7 7 5 11 -6 4 -10 3 -15 -3 -11 -6 4 -10
-11 -10 -37 0 -89 -84 -211 -185 -269 -56 -32 -38 -40 34 -14 89 31 144 101
176 220 18 72 19 88 3 80 -7 -4 -5 0 5 8 17 14 25 33 10 24 -5 -3 -6 15 -4 39
2 35 0 44 -13 44 -10 0 -16 8 -16 23 0 18 2 19 11 7 8 -11 9 -6 4 20 -11 61
-23 145 -20 148 1 2 12 -12 24 -30 l21 -33 0 31 c0 21 -9 39 -30 59 -18 17
-36 50 -45 82 -9 30 -33 94 -55 143 -21 50 -36 90 -34 90 2 0 40 -18 83 -40
64 -32 79 -36 76 -22 -1 9 -10 16 -19 16 -8 -1 -14 2 -11 6 6 10 -126 61 -139
53 -6 -3 -8 -3 -4 1 3 4 -1 15 -10 25 -9 9 -25 28 -35 41 l-19 25 17 -28 c9
-16 15 -31 13 -33 -6 -5 -188 100 -215 124 -13 11 -23 18 -23 14 0 -4 -32 25
-70 63 -50 50 -76 84 -89 120 -10 27 -28 78 -41 113 -12 34 -27 62 -32 62 -6
0 -4 -8 3 -17 7 -10 0 -7 -16 7 -17 14 -31 25 -33 26 -1 0 13 0 32 0 18 -1 40
-6 47 -12 33 -26 41 -24 14 3 -29 29 -55 39 -55 21 0 -5 -5 -6 -10 -3 -8 5 -8
11 0 20 8 10 8 15 -1 21 -7 4 -9 3 -5 -4 3 -6 2 -13 -3 -16 -5 -4 -11 -1 -14
6 -2 7 -3 5 -2 -4 2 -9 -4 -19 -12 -22 -8 -3 -12 -2 -9 3 10 16 -25 21 -40 6
-16 -16 -61 -20 -81 -7 -17 11 -73 83 -73 95 0 5 7 4 15 -3 9 -7 13 -15 11
-17 -7 -7 27 -42 36 -37 4 3 5 -1 2 -9 -8 -21 26 -26 61 -10 l30 13 -35 -6
c-33 -6 -34 -5 -15 10 19 15 19 15 -5 9 -22 -5 -23 -4 -8 8 9 8 18 33 20 56 3
37 0 43 -25 58 -28 16 -51 16 -91 0 -14 -6 -17 -5 -12 3 10 17 -39 14 -89 -4z
m191 -9 c25 -19 14 -19 -22 0 -16 8 -22 15 -13 15 8 0 24 -7 35 -15z m-286
-46 c0 -6 -4 -7 -10 -4 -5 3 -10 11 -10 16 0 6 5 7 10 4 6 -3 10 -11 10 -16z
m-70 -33 c0 -2 -7 -7 -16 -10 -8 -3 -12 -2 -9 4 6 10 25 14 25 6z m334 -12 c3
-8 2 -12 -4 -9 -6 3 -10 10 -10 16 0 14 7 11 14 -7z m-115 -49 c0 -5 -6 1 -14
15 -8 14 -14 30 -14 35 0 6 6 -1 14 -15 8 -14 14 -29 14 -35z m-162 3 c-3 -8
-6 -5 -6 6 -1 11 2 17 5 13 3 -3 4 -12 1 -19z m-50 -27 c0 -11 -5 -18 -9 -15
-4 3 -5 11 -1 19 7 21 12 19 10 -4z m433 -17 c0 -10 -6 -14 -14 -11 -8 3 -16
1 -19 -6 -2 -6 -6 -3 -10 7 -4 9 -3 15 2 11 5 -3 12 -1 16 5 10 16 25 12 25
-6z m-56 -30 c3 -8 2 -12 -4 -9 -6 3 -10 10 -10 16 0 14 7 11 14 -7z m-489
-14 c-3 -5 -1 -10 5 -10 6 0 8 -5 4 -11 -4 -8 -9 -7 -15 2 -12 19 -11 29 2 29
5 0 7 -4 4 -10z m534 -57 c12 -18 18 -33 13 -33 -5 0 -15 12 -23 28 -28 56
-26 57 10 5z m-292 -5 c-3 -7 -5 -2 -5 12 0 14 2 19 5 13 2 -7 2 -19 0 -25z
m-100 -150 c7 18 23 4 23 -21 0 -20 0 -20 14 -1 9 12 11 21 4 25 -5 3 -2 9 8
13 9 3 18 5 20 4 1 -2 6 -73 10 -157 l7 -154 -31 23 c-18 13 -34 32 -38 42 -6
19 -24 25 -24 8 0 -13 15 -32 58 -76 22 -22 32 -42 32 -63 0 -42 -10 -39 -43
11 -15 23 -27 39 -27 34 0 -14 22 -51 47 -78 20 -20 24 -33 19 -53 -4 -17 -2
-33 6 -43 8 -10 9 -13 1 -9 -6 4 -14 3 -18 -3 -3 -5 -2 -10 4 -10 14 0 -18
-60 -36 -67 -10 -4 -13 -14 -9 -34 3 -16 2 -31 -3 -33 -11 -7 -45 71 -66 153
-19 75 -34 230 -23 237 4 3 8 34 8 69 0 54 -3 66 -21 79 l-22 15 32 36 c17 20
31 41 31 48 0 7 4 6 10 -3 14 -22 12 -1 -5 45 -8 22 -14 49 -14 60 0 11 9 -9
21 -45 11 -36 23 -59 25 -52z m100 80 c-3 -7 -5 -2 -5 12 0 14 2 19 5 13 2 -7
2 -19 0 -25z m0 -80 c-3 -8 -6 -5 -6 6 -1 11 2 17 5 13 3 -3 4 -12 1 -19z m0
-80 c-3 -8 -6 -5 -6 6 -1 11 2 17 5 13 3 -3 4 -12 1 -19z m758 -123 c53 -30
102 -52 107 -48 6 3 8 1 4 -5 -3 -5 -2 -12 3 -14 19 -7 111 -223 111 -260 0
-5 -49 34 -108 86 -77 67 -112 92 -120 84 -13 -13 -29 -4 -43 25 -9 20 -9 20
9 -2 10 -13 22 -19 25 -14 3 5 -26 45 -64 89 -66 74 -149 185 -149 199 0 3 29
-15 64 -40 35 -25 108 -70 161 -100z m-325 110 c14 -19 14 -19 -2 -6 -10 7
-18 18 -18 24 0 6 1 8 3 6 1 -2 9 -13 17 -24z m-261 -100 c1 -5 -12 -17 -27
-26 -42 -24 -60 -6 -68 67 l-7 59 51 -45 c28 -25 51 -49 51 -55z m77 79 c-4
-11 -2 -15 8 -11 7 3 23 -4 34 -16 11 -12 30 -30 43 -39 13 -10 18 -18 12 -18
-5 0 -22 9 -36 20 -14 11 -31 20 -39 20 -10 0 -9 3 2 10 8 5 11 10 5 11 -5 1
-14 2 -20 3 -14 2 -23 36 -9 36 3 0 3 -7 0 -16z m-183 -66 c3 -21 2 -38 -4
-38 -5 0 -9 19 -9 42 0 49 5 47 13 -4z m422 22 c10 -11 16 -20 13 -20 -3 0
-13 9 -23 20 -10 11 -16 20 -13 20 3 0 13 -9 23 -20z m-235 -62 c0 -6 -6 -5
-15 2 -8 7 -15 14 -15 16 0 2 7 1 15 -2 8 -4 15 -11 15 -16z m130 -3 c11 -13
10 -14 -4 -9 -9 3 -16 10 -16 15 0 13 6 11 20 -6z m139 -47 c17 -27 8 -22 -30
19 -27 29 -28 32 -7 17 14 -10 31 -27 37 -36z m-189 -4 c0 -7 -58 25 -65 36
-3 5 10 1 29 -11 20 -12 36 -23 36 -25z m326 14 l29 -33 -32 29 c-18 17 -33
31 -33 33 0 8 8 1 36 -29z m-622 -44 c3 -8 2 -12 -4 -9 -6 3 -10 10 -10 16 0
14 7 11 14 -7z m666 6 c0 -5 -5 -10 -11 -10 -5 0 -7 5 -4 10 3 6 8 10 11 10 2
0 4 -4 4 -10z m-631 -56 c13 -30 9 -39 -28 -59 -24 -12 -31 -12 -47 -1 -15 11
-16 17 -6 28 6 8 9 18 5 22 -4 4 0 4 8 1 11 -4 18 1 22 14 7 29 31 26 46 -5z
m239 10 c12 -4 22 -10 22 -15 0 -25 37 -49 73 -49 30 0 40 -4 44 -20 3 -11 9
-18 13 -15 15 9 40 -7 40 -26 0 -16 3 -17 19 -7 11 7 17 16 15 20 -8 12 24 21
44 13 9 -5 23 -9 30 -11 17 -3 42 -24 42 -35 0 -4 11 -20 26 -34 14 -14 22
-30 19 -36 -4 -5 5 -25 19 -43 19 -25 66 -156 66 -183 0 -1 -11 3 -25 9 -15 7
-25 20 -25 32 0 16 -3 17 -9 8 -7 -11 -21 -6 -65 23 -31 21 -56 44 -56 51 0
14 -17 19 -59 15 -16 -1 -32 7 -47 24 -17 19 -28 25 -43 20 -21 -6 -51 13 -51
33 0 6 -9 8 -20 5 -14 -4 -20 -1 -18 8 2 10 -10 15 -39 17 -24 2 -43 8 -43 15
0 8 -3 8 -12 -1 -16 -16 -47 3 -41 26 3 14 -2 21 -19 25 -13 4 -24 2 -26 -3
-2 -6 -10 -10 -18 -10 -8 0 -14 -9 -14 -21 0 -42 -23 -110 -35 -105 -7 2 -18
-1 -24 -7 -10 -9 -17 -7 -32 12 -22 26 -25 47 -7 53 9 3 9 12 -1 36 -7 17 -10
36 -6 41 10 17 35 13 35 -6 0 -11 7 -6 16 14 9 18 24 35 34 38 9 3 22 17 28
30 7 16 20 25 34 25 13 0 34 9 48 20 27 21 34 23 68 14z m302 -6 c0 -4 5 -8
11 -8 11 0 129 -78 129 -85 0 -2 -32 10 -71 28 -70 32 -118 74 -84 74 8 0 15
-4 15 -9z m167 -34 c-3 -3 -12 -4 -19 -1 -8 3 -5 6 6 6 11 1 17 -2 13 -5z m27
-124 c103 -76 156 -179 156 -302 0 -67 0 -67 -89 -24 -39 18 -47 28 -66 81
-27 73 -96 212 -139 280 -18 28 -36 56 -40 64 -13 20 107 -46 178 -99z m36 69
c0 -13 -4 -11 -28 10 -30 25 -28 35 3 15 14 -9 25 -20 25 -25z m-59 14 c13
-16 12 -17 -3 -4 -10 7 -18 15 -18 17 0 8 8 3 21 -13z m-781 -24 c0 -11 -4
-18 -10 -14 -5 3 -7 12 -3 20 7 21 13 19 13 -6z m854 -55 c3 -8 2 -12 -4 -9
-6 3 -10 10 -10 16 0 14 7 11 14 -7z m142 -91 c21 -49 16 -74 -5 -31 -11 21
-36 62 -57 90 l-37 53 42 -40 c24 -22 50 -54 57 -72z m-76 21 c0 -8 -5 -14
-12 -14 -6 0 -8 3 -5 7 4 3 2 12 -5 20 -8 11 -7 12 6 7 9 -3 16 -12 16 -20z
m-590 6 c0 -5 -5 -10 -11 -10 -5 0 -7 5 -4 10 3 6 8 10 11 10 2 0 4 -4 4 -10z
m-173 -52 c-3 -8 -6 -5 -6 6 -1 11 2 17 5 13 3 -3 4 -12 1 -19z m-115 -98 l3
-65 59 -28 c60 -29 95 -61 95 -87 0 -9 -5 -6 -12 8 -7 12 -16 19 -20 16 -4 -4
-7 -1 -7 7 0 8 -27 25 -60 39 -65 27 -63 25 -75 132 -4 32 -3 63 2 70 9 15 11
5 15 -92z m608 -11 l35 -30 -42 23 c-24 13 -43 26 -43 31 0 14 15 7 50 -24z
m353 -84 c9 -38 14 -71 12 -73 -2 -3 -11 -2 -20 1 -11 5 -15 21 -15 66 0 33
-3 68 -6 78 -5 12 -4 15 3 8 6 -5 18 -41 26 -80z m-603 51 c0 -2 -8 -10 -17
-17 -16 -13 -17 -12 -4 4 13 16 21 21 21 13z m264 -66 l68 -25 -6 -43 c-6 -46
-31 -102 -45 -102 -5 0 -15 16 -21 36 -7 20 -27 63 -46 96 -35 62 -39 72 -26
66 4 -1 38 -14 76 -28z m-584 -20 c0 -5 -2 -10 -4 -10 -3 0 -8 5 -11 10 -3 6
-1 10 4 10 6 0 11 -4 11 -10z m320 -10 c0 -5 -5 -10 -11 -10 -5 0 -7 5 -4 10
3 6 8 10 11 10 2 0 4 -4 4 -10z m212 -77 l46 -88 -23 -29 c-12 -15 -20 -36
-18 -46 3 -10 0 -21 -7 -25 -12 -7 -10 39 3 51 15 15 6 24 -13 14 -16 -9 -20
-8 -20 5 0 11 7 14 25 11 14 -3 25 -1 25 4 0 17 -12 40 -19 35 -4 -2 -8 1 -8
8 -1 7 -12 42 -26 80 -13 37 -22 67 -18 67 3 0 27 -39 53 -87z m-265 71 c-3
-3 -12 -4 -19 -1 -8 3 -5 6 6 6 11 1 17 -2 13 -5z m-167 -55 c0 -6 -4 -7 -10
-4 -5 3 -10 11 -10 16 0 6 5 7 10 4 6 -3 10 -11 10 -16z m-155 -29 c10 -11 16
-20 13 -20 -3 0 -13 9 -23 20 -10 11 -16 20 -13 20 3 0 13 -9 23 -20z m329 -1
c28 -13 76 -128 76 -183 0 -41 -45 -90 -60 -66 -5 8 -10 19 -10 23 0 5 -4 6
-9 3 -5 -4 -7 2 -5 12 4 11 -6 25 -26 40 -19 15 -29 30 -26 40 2 9 10 45 17
80 7 34 14 62 16 62 1 0 13 -5 27 -11z m136 -73 c0 -2 -7 -9 -15 -16 -12 -10
-15 -10 -15 4 0 9 7 16 15 16 8 0 15 -2 15 -4z m-628 -38 c-8 -8 -9 -4 -5 13
4 13 8 18 11 10 2 -7 -1 -18 -6 -23z m260 -10 c-7 -7 -12 -8 -12 -2 0 6 3 14
7 17 3 4 9 5 12 2 2 -3 -1 -11 -7 -17z m88 6 c0 5 7 3 15 -4 8 -7 15 -18 15
-24 0 -6 -5 -4 -10 4 -5 8 -15 15 -21 15 -7 0 -14 7 -16 15 -4 13 -3 13 6 0 6
-8 11 -11 11 -6z m-253 -56 c-3 -7 -5 -2 -5 12 0 14 2 19 5 13 2 -7 2 -19 0
-25z m191 7 c-3 -3 -9 2 -12 12 -6 14 -5 15 5 6 7 -7 10 -15 7 -18z m453 -85
c6 0 7 5 3 12 -4 7 -3 8 4 4 6 -4 9 -13 6 -21 -4 -10 1 -12 18 -8 13 3 0 -10
-32 -31 -30 -20 -60 -34 -67 -32 -7 3 -15 1 -18 -4 -13 -20 -81 -11 -109 15
-26 24 -53 35 -42 16 3 -5 -5 -11 -19 -13 l-24 -5 21 22 c12 13 28 21 35 18 7
-3 13 0 13 6 0 9 5 9 20 1 11 -6 20 -7 19 -3 -4 26 4 40 31 50 18 7 30 7 30 2
0 -6 5 -7 11 -3 6 3 9 21 7 40 -4 32 -3 33 37 36 l40 3 3 -52 c2 -29 8 -53 13
-53z m49 62 c0 -7 -4 -10 -10 -7 -5 3 -10 1 -10 -4 0 -6 7 -11 16 -11 8 0 12
-4 9 -10 -3 -5 -2 -10 3 -10 5 0 9 -7 9 -14 0 -25 -34 0 -41 30 -9 34 2 73 15
53 5 -8 9 -20 9 -27z m-350 -6 c0 -2 -7 -7 -16 -10 -8 -3 -12 -2 -9 4 6 10 25
14 25 6z m-40 -10 c0 -3 -4 -8 -10 -11 -5 -3 -10 -1 -10 4 0 6 5 11 10 11 6 0
10 -2 10 -4z m-153 -46 c3 -10 2 -11 -4 -4 -4 6 -15 14 -23 17 -11 5 -9 6 4 4
11 -1 21 -9 23 -17z m90 -22 c-3 -8 -6 -5 -6 6 -1 11 2 17 5 13 3 -3 4 -12 1
-19z m57 -3 c-4 -8 -11 -12 -16 -9 -6 4 -5 10 3 15 19 12 19 11 13 -6z m-45
-42 c0 -25 -1 -25 -8 -8 -5 11 -7 23 -4 28 8 14 13 7 12 -20z m-27 -17 c27
-23 29 -39 3 -29 -16 6 -49 53 -38 53 5 0 20 -11 35 -24z m-198 -91 c-4 -8 -8
-15 -10 -15 -2 0 -4 7 -4 15 0 8 4 15 10 15 5 0 7 -7 4 -15z m172 -30 c-4 -10
2 -19 16 -24 14 -5 18 -10 10 -15 -7 -4 -10 -12 -7 -17 4 -5 -3 -9 -14 -9 -11
0 -23 5 -27 12 -5 8 -2 9 9 5 23 -9 22 19 0 32 -16 9 -16 12 -3 21 20 13 23
13 16 -5z m34 0 c0 -8 -2 -15 -4 -15 -2 0 -6 7 -10 15 -3 8 -1 15 4 15 6 0 10
-7 10 -15z m104 -8 c-2 -7 -22 -13 -47 -14 l-42 -1 35 13 c46 17 61 18 54 2z
m394 -6 c6 -1 12 -5 12 -11 0 -5 -24 -10 -52 -10 -29 -1 -63 -6 -76 -13 l-23
-13 21 -19 c20 -18 20 -18 20 3 0 19 6 22 40 22 29 0 40 -4 40 -15 0 -23 26
-18 56 10 15 14 30 22 33 18 3 -5 12 -8 19 -9 27 -2 31 -5 29 -22 -1 -15 -10
-18 -46 -18 -116 0 -171 -5 -171 -14 0 -6 33 -10 80 -10 l80 0 0 -32 0 -33
-68 1 c-96 1 -104 3 -100 16 3 7 -4 20 -15 28 -10 9 -21 31 -23 50 -4 32 -1
37 33 57 23 13 50 20 68 18 17 -2 36 -4 43 -4z m244 -43 c16 -2 20 -12 23 -50
1 -27 -1 -48 -6 -48 -5 0 -9 8 -9 17 0 9 -6 24 -14 32 -8 9 -16 32 -19 51 -2
19 -2 27 0 18 2 -9 13 -18 25 -20z m-835 0 c-3 -7 -5 -2 -5 12 0 14 2 19 5 13
2 -7 2 -19 0 -25z m140 16 c-3 -3 -12 -4 -19 -1 -8 3 -5 6 6 6 11 1 17 -2 13
-5z m767 -37 c-3 -7 1 -4 9 6 13 16 15 16 21 2 3 -9 2 -14 -3 -11 -4 3 -17 -3
-29 -14 -12 -12 -23 -16 -27 -10 -3 6 -1 10 4 10 6 0 11 9 11 21 0 11 5 17 10
14 6 -4 8 -12 4 -18z m-584 9 c0 -3 -4 -8 -10 -11 -5 -3 -10 -1 -10 4 0 6 5
11 10 11 6 0 10 -2 10 -4z m-16 -41 c-8 -20 13 -19 24 2 9 15 13 15 43 3 26
-11 34 -11 37 -1 2 7 14 -4 28 -26 28 -46 29 -53 7 -52 -11 0 -13 3 -5 6 6 2
10 9 6 14 -8 14 -24 11 -24 -6 0 -19 -14 -19 -30 0 -7 8 -22 15 -34 15 -17 0
-44 13 -75 36 -6 5 10 24 19 24 5 0 7 -7 4 -15z m586 -50 c0 -8 -2 -15 -4 -15
-2 0 -6 7 -10 15 -3 8 -1 15 4 15 6 0 10 -7 10 -15z"/>
<path d="M612 1420 c0 -14 2 -19 5 -12 2 6 2 18 0 25 -3 6 -5 1 -5 -13z"/>
<path d="M671 1424 c0 -11 3 -14 6 -6 3 7 2 16 -1 19 -3 4 -6 -2 -5 -13z"/>
<path d="M621 1374 c0 -11 3 -14 6 -6 3 7 2 16 -1 19 -3 4 -6 -2 -5 -13z"/>
<path d="M671 1225 c0 -5 6 -21 14 -35 8 -14 14 -20 14 -15 0 6 -6 21 -14 35
-8 14 -14 21 -14 15z"/>
<path d="M780 1319 c0 -5 -4 -7 -10 -4 -14 9 -12 -1 3 -13 10 -8 13 -6 14 9 1
10 0 19 -3 19 -2 0 -4 -5 -4 -11z"/>
<path d="M841 1134 c0 -11 3 -14 6 -6 3 7 2 16 -1 19 -3 4 -6 -2 -5 -13z"/>
<path d="M1451 1115 c0 -5 8 -37 19 -70 10 -33 19 -51 19 -40 -1 21 -37 127
-38 110z"/>
<path d="M1360 479 c0 -5 5 -7 10 -4 6 3 10 8 10 11 0 2 -4 4 -10 4 -5 0 -10
-5 -10 -11z"/>
<path d="M1175 460 c-3 -5 1 -10 9 -10 9 0 16 -4 16 -10 0 -5 18 -10 39 -10
22 0 43 5 46 10 4 6 -12 10 -39 10 -25 0 -46 5 -46 10 0 6 -4 10 -9 10 -6 0
-13 -4 -16 -10z"/>
<path d="M1530 240 c-8 -5 -12 -12 -9 -15 8 -8 39 5 39 16 0 11 -11 11 -30 -1z"/>
<path d="M1325 200 c3 -5 10 -10 16 -10 5 0 9 5 9 10 0 6 -7 10 -16 10 -8 0
-12 -4 -9 -10z"/>
<path d="M1202 178 c5 -15 78 -24 78 -10 0 10 -33 22 -63 22 -11 0 -17 -6 -15
-12z"/>
<path d="M1055 2090 c10 -11 20 -20 22 -20 2 0 -1 9 -7 20 -6 11 -16 20 -22
20 -6 0 -3 -9 7 -20z"/>
<path d="M535 1990 c-3 -5 -1 -10 4 -10 6 0 11 5 11 10 0 6 -2 10 -4 10 -3 0
-8 -4 -11 -10z"/>
<path d="M1240 1934 c0 -5 20 -27 45 -47 25 -21 45 -36 45 -35 0 2 -20 24 -45
48 -25 24 -45 40 -45 34z"/>
<path d="M1380 1798 c41 -45 50 -53 50 -45 0 2 -21 23 -47 47 l-48 45 45 -47z"/>
<path d="M491 1754 c0 -11 3 -14 6 -6 3 7 2 16 -1 19 -3 4 -6 -2 -5 -13z"/>
<path d="M1470 1696 c0 -2 8 -10 18 -17 15 -13 16 -12 3 4 -13 16 -21 21 -21
13z"/>
<path d="M1530 1616 c0 -2 8 -10 18 -17 15 -13 16 -12 3 4 -13 16 -21 21 -21
13z"/>
<path d="M1629 583 c-13 -16 -12 -17 4 -4 16 13 21 21 13 21 -2 0 -10 -8 -17
-17z"/>
</g>
</svg>
