<?xml version="1.0" standalone="no"?>
<!DOCTYPE svg PUBLIC "-//W3C//DTD SVG 20010904//EN"
 "http://www.w3.org/TR/2001/REC-SVG-20010904/DTD/svg10.dtd">
<svg version="1.0" xmlns="http://www.w3.org/2000/svg"
 width="225.000000pt" height="225.000000pt" viewBox="0 0 225.000000 225.000000"
 preserveAspectRatio="xMidYMid meet">

<g transform="translate(0.000000,225.000000) scale(0.100000,-0.100000)"
fill="#000000" stroke="none">
<path d="M1040 1499 c-73 -14 -182 -74 -232 -126 -63 -69 -95 -127 -119 -223
-15 -63 -27 -90 -50 -111 -41 -38 -41 -90 1 -129 20 -19 30 -38 30 -57 0 -53
65 -100 121 -88 16 4 40 20 54 37 26 31 26 33 23 166 -3 133 -3 134 -31 158
-15 13 -40 24 -54 24 -23 0 -25 3 -19 32 16 78 109 182 205 227 49 23 69 26
156 26 87 0 107 -3 156 -26 96 -45 189 -149 205 -227 6 -30 5 -32 -21 -32 -16
0 -38 -11 -56 -29 l-29 -29 0 -130 c0 -125 1 -132 25 -160 14 -17 38 -33 54
-37 56 -12 121 35 121 88 0 19 10 38 30 57 41 38 42 91 2 128 -21 20 -34 49
-51 112 -39 148 -114 246 -235 305 -104 51 -185 64 -286 44z"/>
<path d="M1236 1235 c-9 -25 -7 -328 3 -344 5 -8 16 -11 25 -8 15 6 16 28 14
184 -3 155 -5 178 -19 181 -9 2 -19 -4 -23 -13z"/>
<path d="M910 1019 c0 -166 1 -180 18 -177 15 3 17 21 20 181 2 172 2 177 -18
177 -19 0 -20 -6 -20 -181z"/>
<path d="M1047 1134 c-4 -4 -7 -88 -7 -186 0 -172 1 -178 20 -178 20 0 20 5
18 182 -3 170 -9 204 -31 182z"/>
<path d="M1304 1007 c-3 -8 -4 -39 -2 -68 2 -40 7 -54 18 -54 20 0 22 126 3
132 -7 3 -15 -2 -19 -10z"/>
<path d="M1170 866 c0 -88 3 -115 14 -119 8 -3 17 -3 20 0 3 4 6 57 6 120 0
106 -1 113 -20 113 -19 0 -20 -7 -20 -114z"/>
</g>
</svg>
