<?xml version="1.0" standalone="no"?>
<!DOCTYPE svg PUBLIC "-//W3C//DTD SVG 20010904//EN"
 "http://www.w3.org/TR/2001/REC-SVG-20010904/DTD/svg10.dtd">
<svg version="1.0" xmlns="http://www.w3.org/2000/svg"
 width="508.000000pt" height="339.000000pt" viewBox="0 0 508.000000 339.000000"
 preserveAspectRatio="xMidYMid meet">

<g transform="translate(0.000000,339.000000) scale(0.100000,-0.100000)"
fill="#000000" stroke="none">
<path d="M0 1695 l0 -1695 2060 0 2060 0 0 48 c0 26 -4 85 -10 132 -9 81 -12
130 -25 355 -8 140 -14 168 -33 160 -12 -4 -13 -3 -2 10 10 12 10 15 -4 15 -9
0 -16 5 -16 11 0 5 5 7 12 3 7 -4 8 -3 4 4 -4 7 -13 12 -20 12 -11 0 -11 8 -3
40 8 30 8 43 -1 52 -9 9 -12 6 -12 -14 0 -15 -12 -39 -26 -55 l-27 -28 7 64
c4 52 2 68 -11 83 -34 38 5 16 60 -35 34 -30 59 -61 60 -74 1 -15 7 -20 19
-18 21 4 23 -6 6 -23 -7 -7 -9 -12 -4 -12 4 0 14 7 22 15 14 13 14 17 -1 31
-9 9 -14 23 -11 31 4 9 2 11 -6 7 -6 -4 -20 4 -32 19 -12 14 -72 64 -133 110
-62 46 -110 87 -108 91 3 3 2 4 -1 1 -11 -7 -45 15 -39 26 4 5 1 8 -7 7 -7 -2
-12 2 -11 9 2 7 -3 10 -10 8 -6 -3 -26 8 -42 23 -17 15 -25 23 -18 18 8 -5 13
-4 13 2 0 6 -9 14 -20 17 -11 3 -20 11 -20 16 0 18 -2 24 -12 37 -6 6 -16 12
-22 12 -6 0 -2 -7 8 -15 13 -10 15 -15 6 -15 -9 0 -8 -6 5 -20 10 -11 15 -20
12 -20 -4 0 2 -15 13 -32 14 -24 20 -51 20 -96 0 -78 -16 -73 -25 8 -4 33 -15
75 -24 94 -16 30 -16 34 -2 28 13 -4 12 -1 -3 16 -11 12 -16 22 -11 22 4 0 3
6 -3 13 -6 6 -10 16 -10 22 0 5 -5 11 -12 13 -6 2 -10 0 -9 -5 1 -4 -1 -17 -6
-28 -56 -139 -78 -191 -85 -199 -5 -5 11 42 35 104 25 62 43 115 40 118 -2 2
-12 -14 -21 -37 -14 -36 -18 -39 -37 -30 -17 10 -19 9 -13 -6 4 -13 2 -16 -9
-11 -12 4 -13 2 -2 -14 6 -11 15 -20 19 -20 5 0 8 -4 8 -10 0 -5 -16 0 -36 12
-30 18 -37 19 -45 7 -6 -10 1 -19 26 -32 35 -17 49 -34 20 -23 -13 4 -14 2 -5
-14 12 -22 1 -27 -18 -8 -9 9 -11 2 -8 -31 3 -32 1 -40 -7 -32 -30 30 -46 -9
-18 -43 15 -18 8 -20 -19 -6 -16 8 -18 7 -15 -9 3 -14 -1 -18 -11 -14 -18 7
-18 -11 0 -26 11 -9 15 -9 19 1 3 7 6 4 6 -7 0 -11 -4 -27 -9 -35 -8 -13 -10
-13 -10 1 0 9 -11 24 -25 33 -14 9 -25 12 -25 6 0 -6 -9 -6 -26 0 -33 13 -34
13 -34 -5 0 -9 -6 -12 -17 -8 -11 4 -12 8 -5 11 7 2 12 8 12 13 0 6 11 22 25
37 14 15 25 34 25 44 0 9 11 25 24 36 23 17 24 21 10 40 -11 16 -11 22 -1 26
6 3 2 3 -10 0 -13 -3 -24 -1 -24 5 -1 6 -2 17 -3 23 0 7 13 28 31 46 17 18 35
42 39 54 3 12 19 39 35 61 16 22 29 51 29 64 0 12 3 23 8 23 11 0 44 61 53
100 4 19 11 47 15 62 4 19 0 36 -17 60 -22 32 -22 32 -1 14 22 -19 59 -126 84
-241 15 -71 51 -111 242 -270 222 -185 303 -263 320 -306 28 -69 39 -245 33
-512 l-6 -247 444 0 445 0 0 1695 0 1695 -2540 0 -2540 0 0 -1695z m2989 1298
c47 -57 114 -191 107 -216 -8 -30 45 -177 64 -177 15 0 42 -85 81 -252 7 -30
18 -49 29 -53 51 -16 110 -116 110 -186 0 -65 -48 -147 -107 -181 -26 -16 -32
-25 -28 -42 5 -15 4 -17 -3 -7 -5 7 -10 42 -11 78 -1 36 -4 76 -7 88 -4 18 0
24 24 33 l29 10 -18 113 c-10 63 -23 115 -28 117 -5 2 -8 9 -5 16 3 7 0 23 -6
37 -10 22 -10 22 -4 -6 3 -16 2 -26 -2 -22 -13 13 -14 68 -1 60 7 -3 8 -2 4 3
-13 13 -76 12 -88 -2 -6 -7 -17 -10 -24 -8 -10 4 -12 -1 -8 -18 3 -13 4 -21 1
-18 -12 11 -57 197 -52 215 3 12 -7 53 -21 93 -28 77 -27 92 8 93 12 0 17 3
10 5 -6 3 -28 1 -47 -5 -27 -7 -36 -6 -36 2 0 20 -57 134 -92 185 -18 26 -32
50 -30 55 1 4 -2 7 -8 7 -5 0 -10 5 -10 10 0 32 79 -32 104 -85 10 -20 22 -33
27 -29 7 4 7 10 0 17 -6 6 -11 18 -11 26 0 8 10 3 25 -15 14 -16 25 -24 25
-19 0 17 -31 57 -69 92 -37 34 -36 42 2 21 21 -10 21 -10 7 7 -14 17 -14 17 7
7 12 -7 35 -29 52 -49z m146 -631 c-3 -3 -11 0 -18 7 -9 10 -8 11 6 5 10 -3
15 -9 12 -12z m-25 -174 c0 -16 6 -28 13 -28 7 0 8 -3 2 -8 -18 -13 -38 -60
-32 -76 4 -9 2 -16 -3 -16 -5 0 -12 9 -15 20 -3 11 -13 20 -21 20 -8 0 -12 -4
-9 -10 3 -5 1 -10 -5 -10 -6 0 -18 -7 -26 -15 -24 -23 -32 -18 -44 24 -9 34
-7 47 13 93 13 30 39 66 57 82 l33 27 18 -38 c10 -21 18 -50 19 -65z m-112
-303 c-6 -14 -13 -23 -15 -21 -5 5 15 46 22 46 3 0 -1 -11 -7 -25z m25 -215
l22 -25 -24 20 c-25 22 -51 67 -50 87 0 7 7 -3 16 -22 8 -19 24 -46 36 -60z
m162 -10 c-3 -5 -12 -10 -18 -10 -7 0 -6 4 3 10 19 12 23 12 15 0z m256 -17
c13 -16 12 -17 -3 -4 -17 13 -22 21 -14 21 2 0 10 -8 17 -17z m40 -30 c13 -16
12 -17 -3 -4 -10 7 -18 15 -18 17 0 8 8 3 21 -13z m-58 -116 c-4 -57 -79 -126
-95 -88 -5 12 -7 11 -7 -7 -1 -13 -5 -20 -11 -17 -5 3 -10 32 -10 65 l0 58 48
10 c67 14 77 11 75 -21z m-134 -59 c-1 -55 -3 -66 -9 -43 l-8 30 -1 -27 c-2
-56 -20 -26 -24 40 l-3 67 -3 -75 c-3 -88 -19 -70 -20 23 l-1 57 35 0 35 0 -1
-72z m-137 -5 c2 -24 0 -43 -4 -43 -5 0 -7 26 -7 58 1 61 6 55 11 -15z m27 5
c-1 -68 -6 -61 -11 15 -2 26 0 47 4 47 5 0 7 -28 7 -62z m30 -10 c-1 -63 -2
-68 -10 -38 -10 42 -8 110 3 110 4 0 8 -33 7 -72z m-92 15 c-3 -10 -5 -4 -5
12 0 17 2 24 5 18 2 -7 2 -21 0 -30z m-167 -178 c0 -11 -19 -4 -41 15 l-24 21
33 -16 c17 -8 32 -18 32 -20z m165 -30 c39 -2 82 -4 98 -5 15 0 27 -4 27 -9 0
-10 -36 -21 -44 -13 -3 3 -30 6 -60 8 -76 3 -136 14 -136 25 0 5 10 7 23 4 12
-3 54 -7 92 -10z m165 -9 c0 -3 -4 -8 -10 -11 -5 -3 -10 -1 -10 4 0 6 5 11 10
11 6 0 10 -2 10 -4z m524 -208 c19 -18 41 -34 48 -36 7 -1 23 -14 34 -27 12
-13 25 -21 30 -17 4 4 4 2 1 -4 -4 -7 2 -23 13 -37 11 -14 20 -31 20 -39 -1
-8 -6 -6 -15 6 -15 19 -15 19 -15 -1 0 -12 5 -25 10 -28 6 -3 10 -18 10 -33
l0 -27 -20 33 c-14 22 -26 32 -36 28 -9 -4 -12 -2 -8 5 4 6 2 14 -4 18 -7 4
-13 17 -15 29 -2 12 -14 37 -28 54 -13 18 -32 46 -43 63 -10 16 -24 33 -30 37
-8 6 -8 8 1 8 6 0 27 -15 47 -32z m-323 -85 c-11 -21 -20 -35 -21 -31 0 12 33
78 38 74 2 -2 -6 -21 -17 -43z m-28 -58 c-3 -9 -8 -14 -10 -11 -3 3 -2 9 2 15
9 16 15 13 8 -4z m-368 -24 c3 -6 -3 -15 -14 -20 -16 -9 -18 -8 -14 9 6 21 18
26 28 11z m245 -6 c7 -8 18 -15 25 -15 17 0 43 -31 45 -55 4 -33 1 -45 -12
-45 -6 0 -8 3 -5 7 4 3 0 18 -9 31 -16 24 -16 25 2 19 18 -7 18 -7 0 8 -10 8
-23 12 -27 9 -5 -3 -9 -1 -9 4 0 5 -9 12 -20 15 -11 3 -20 12 -20 21 0 20 14
21 30 1z m101 -18 c-10 -9 -11 -8 -5 6 3 10 9 15 12 12 3 -3 0 -11 -7 -18z
m-14 -49 c-3 -8 -6 -5 -6 6 -1 11 2 17 5 13 3 -3 4 -12 1 -19z m629 -110 c4
-7 4 -10 -1 -6 -4 4 -15 2 -24 -5 -14 -11 -14 -10 -2 6 16 20 18 21 27 5z
m-751 -357 c49 -23 65 -35 65 -50 0 -27 -8 -26 -37 1 -36 34 -27 15 13 -26 30
-31 34 -39 23 -52 -9 -11 -9 -18 -1 -26 8 -8 13 3 18 41 4 28 11 54 16 57 6 4
8 -5 3 -25 -3 -17 -7 -56 -8 -86 -1 -30 -4 -55 -8 -55 -17 0 -36 39 -35 70 1
26 -6 42 -26 61 -14 15 -28 39 -30 55 -2 15 -9 30 -17 32 -11 4 -13 -2 -8 -27
4 -20 3 -30 -3 -26 -6 3 -10 20 -10 36 0 17 -4 28 -9 25 -5 -3 -11 1 -15 9 -7
20 -6 20 69 -14z m32 -143 c-3 -8 -6 -5 -6 6 -1 11 2 17 5 13 3 -3 4 -12 1
-19z m94 -34 c10 -13 -8 -74 -22 -74 -5 0 -5 10 0 24 5 13 8 41 6 62 -1 22 0
30 2 19 3 -11 9 -25 14 -31z"/>
<path d="M3091 2434 c0 -11 3 -14 6 -6 3 7 2 16 -1 19 -3 4 -6 -2 -5 -13z"/>
<path d="M3112 2420 c0 -14 2 -19 5 -12 2 6 2 18 0 25 -3 6 -5 1 -5 -13z"/>
<path d="M3343 1455 c0 -27 2 -38 4 -22 2 15 2 37 0 50 -2 12 -4 0 -4 -28z"/>
<path d="M3263 1465 c0 -22 2 -30 4 -17 2 12 2 30 0 40 -3 9 -5 -1 -4 -23z"/>
<path d="M3724 1125 c3 -21 26 -44 26 -26 0 7 5 9 12 5 7 -4 8 -3 4 4 -4 6
-14 8 -23 5 -10 -4 -14 -2 -9 5 3 6 2 13 -3 16 -5 4 -8 -1 -7 -9z"/>
<path d="M3430 1069 c0 -5 5 -7 10 -4 6 3 10 8 10 11 0 2 -4 4 -10 4 -5 0 -10
-5 -10 -11z"/>
<path d="M3375 940 c-3 -5 -1 -10 4 -10 6 0 11 5 11 10 0 6 -2 10 -4 10 -3 0
-8 -4 -11 -10z"/>
<path d="M3360 904 c0 -8 5 -12 10 -9 6 3 10 10 10 16 0 5 -4 9 -10 9 -5 0
-10 -7 -10 -16z"/>
<path d="M4110 694 c0 -14 4 -23 9 -20 5 3 7 15 4 26 -7 28 -13 25 -13 -6z"/>
<path d="M4161 674 c0 -11 3 -14 6 -6 3 7 2 16 -1 19 -3 4 -6 -2 -5 -13z"/>
<path d="M4171 634 c0 -11 3 -14 6 -6 3 7 2 16 -1 19 -3 4 -6 -2 -5 -13z"/>
</g>
</svg>
